<?xml version="1.0" encoding="utf-8"?>
<!-- Generator: Adobe Illustrator 16.0.0, SVG Export Plug-In . SVG Version: 6.00 Build 0)  -->
<!DOCTYPE svg PUBLIC "-//W3C//DTD SVG 1.1//EN" "http://www.w3.org/Graphics/SVG/1.1/DTD/svg11.dtd">
<svg version="1.1" id="Layer_1" xmlns="http://www.w3.org/2000/svg" xmlns:xlink="http://www.w3.org/1999/xlink" x="0px" y="0px"
	 width="18px" height="18px" viewBox="0 0 18 18" enable-background="new 0 0 18 18" xml:space="preserve">
<path fill="none" d="M0,0h18v18H0V0z"/>
<path fill="#FFFFFF" d="M9,1.5C4.86,1.5,1.5,4.86,1.5,9c0,4.141,3.36,7.5,7.5,7.5c4.141,0,7.5-3.359,7.5-7.5
	C16.5,4.86,13.141,1.5,9,1.5z M9.75,14.25h-1.5v-1.5h1.5V14.25z M11.303,8.438l-0.676,0.69C10.088,9.675,9.75,10.125,9.75,11.25
	h-1.5v-0.375c0-0.825,0.337-1.575,0.877-2.123l0.93-0.945C10.335,7.538,10.5,7.163,10.5,6.75c0-0.825-0.675-1.5-1.5-1.5
	s-1.5,0.675-1.5,1.5H6c0-1.657,1.342-3,3-3c1.658,0,3,1.343,3,3C12,7.41,11.73,8.01,11.303,8.438z"/>
</svg>
