<?xml version="1.0" encoding="utf-8"?>
<!-- Generator: Adobe Illustrator 16.0.0, SVG Export Plug-In . SVG Version: 6.00 Build 0)  -->
<!DOCTYPE svg PUBLIC "-//W3C//DTD SVG 1.1//EN" "http://www.w3.org/Graphics/SVG/1.1/DTD/svg11.dtd">
<svg version="1.1" id="Layer_1" xmlns="http://www.w3.org/2000/svg" xmlns:xlink="http://www.w3.org/1999/xlink" x="0px" y="0px"
	 width="18px" height="18px" viewBox="0 0 18 18" enable-background="new 0 0 18 18" xml:space="preserve">
<path fill="none" d="M0,0h18v18H0V0z"/>
<path fill="#FFFFFF" d="M12,8.25c1.245,0,2.242-1.005,2.242-2.25S13.245,3.75,12,3.75S9.75,4.755,9.75,6S10.755,8.25,12,8.25z
	 M6,8.25c1.245,0,2.243-1.005,2.243-2.25S7.245,3.75,6,3.75S3.75,4.755,3.75,6S4.755,8.25,6,8.25z M6,9.75
	c-1.748,0-5.25,0.877-5.25,2.625v1.875h10.5v-1.875C11.25,10.627,7.748,9.75,6,9.75z M12,9.75c-0.217,0-0.465,0.016-0.728,0.037
	c0.87,0.631,1.478,1.479,1.478,2.588v1.875h4.5v-1.875C17.25,10.627,13.748,9.75,12,9.75z"/>
</svg>
