<?xml version="1.0" encoding="utf-8"?>
<!-- Generator: Adobe Illustrator 16.0.0, SVG Export Plug-In . SVG Version: 6.00 Build 0)  -->
<!DOCTYPE svg PUBLIC "-//W3C//DTD SVG 1.1//EN" "http://www.w3.org/Graphics/SVG/1.1/DTD/svg11.dtd">
<svg version="1.1" id="Layer_1" xmlns="http://www.w3.org/2000/svg" xmlns:xlink="http://www.w3.org/1999/xlink" x="0px" y="0px"
	 width="18px" height="18px" viewBox="0 0 18 18" enable-background="new 0 0 18 18" xml:space="preserve">
<path fill="none" d="M0,0h18v18H0V0z"/>
<path fill="#FFFFFF" d="M14.572,9.734c0.03-0.239,0.053-0.479,0.053-0.734s-0.022-0.495-0.053-0.735l1.582-1.238
	c0.143-0.112,0.181-0.315,0.091-0.48l-1.5-2.595c-0.091-0.165-0.292-0.225-0.458-0.165l-1.867,0.75
	c-0.391-0.3-0.811-0.547-1.268-0.735l-0.285-1.988C10.846,1.635,10.688,1.5,10.5,1.5h-3c-0.188,0-0.345,0.135-0.368,0.315
	L6.848,3.803C6.39,3.99,5.97,4.245,5.58,4.538l-1.868-0.75c-0.172-0.068-0.367,0-0.458,0.165l-1.5,2.595
	c-0.097,0.165-0.052,0.368,0.09,0.48l1.583,1.238C3.397,8.505,3.375,8.752,3.375,9s0.022,0.495,0.053,0.734l-1.583,1.238
	c-0.143,0.112-0.18,0.314-0.09,0.48l1.5,2.594c0.09,0.166,0.292,0.226,0.458,0.166l1.868-0.75c0.39,0.3,0.81,0.547,1.268,0.734
	l0.285,1.988C7.155,16.365,7.312,16.5,7.5,16.5h3c0.188,0,0.346-0.135,0.367-0.314l0.285-1.988c0.457-0.188,0.877-0.442,1.268-0.734
	l1.867,0.75c0.173,0.067,0.367,0,0.458-0.166l1.5-2.594c0.09-0.166,0.052-0.368-0.091-0.48L14.572,9.734z M9,11.625
	c-1.447,0-2.625-1.178-2.625-2.625S7.553,6.375,9,6.375S11.625,7.553,11.625,9S10.447,11.625,9,11.625z"/>
</svg>
