<?xml version="1.0" encoding="utf-8"?>
<!-- Generator: Adobe Illustrator 16.0.0, SVG Export Plug-In . SVG Version: 6.00 Build 0)  -->
<!DOCTYPE svg PUBLIC "-//W3C//DTD SVG 1.1//EN" "http://www.w3.org/Graphics/SVG/1.1/DTD/svg11.dtd">
<svg version="1.1" id="Layer_1" xmlns="http://www.w3.org/2000/svg" xmlns:xlink="http://www.w3.org/1999/xlink" x="0px" y="0px"
	 width="18px" height="18px" viewBox="0 0 18 18" enable-background="new 0 0 18 18" xml:space="preserve">
<path fill="#FFFFFF" d="M5.25,13.5c-0.825,0-1.493,0.675-1.493,1.5s0.667,1.5,1.493,1.5s1.5-0.675,1.5-1.5S6.075,13.5,5.25,13.5z
	 M0.75,1.5V3h1.5l2.7,5.692L3.938,10.53c-0.12,0.21-0.188,0.457-0.188,0.72c0,0.825,0.675,1.5,1.5,1.5h9v-1.5H5.565
	c-0.105,0-0.188-0.082-0.188-0.188l0.022-0.09L6.075,9.75h5.587c0.562,0,1.059-0.308,1.312-0.772L15.66,4.11
	c0.061-0.105,0.09-0.232,0.09-0.36C15.75,3.337,15.412,3,15,3H3.908L3.203,1.5H0.75z M12.75,13.5c-0.825,0-1.492,0.675-1.492,1.5
	s0.667,1.5,1.492,1.5s1.5-0.675,1.5-1.5S13.575,13.5,12.75,13.5z"/>
<path fill="none" d="M0,0h18v18H0V0z"/>
</svg>
