<?xml version="1.0" encoding="utf-8"?>
<!-- Generator: Adobe Illustrator 16.0.0, SVG Export Plug-In . SVG Version: 6.00 Build 0)  -->
<!DOCTYPE svg PUBLIC "-//W3C//DTD SVG 1.1//EN" "http://www.w3.org/Graphics/SVG/1.1/DTD/svg11.dtd">
<svg version="1.1" id="Layer_1" xmlns="http://www.w3.org/2000/svg" xmlns:xlink="http://www.w3.org/1999/xlink" x="0px" y="0px"
	 width="18px" height="18px" viewBox="0 0 18 18" enable-background="new 0 0 18 18" xml:space="preserve">
<path fill="none" d="M0,0h18v18H0V0z"/>
<path fill="#26C1E0" d="M13.5,12.061c-0.57,0-1.08,0.225-1.471,0.577L6.683,9.525C6.72,9.353,6.75,9.18,6.75,9
	S6.72,8.647,6.683,8.475l5.288-3.083C12.375,5.768,12.908,6,13.5,6c1.245,0,2.25-1.005,2.25-2.25S14.745,1.5,13.5,1.5
	s-2.25,1.005-2.25,2.25c0,0.18,0.029,0.353,0.067,0.525L6.03,7.357C5.625,6.982,5.092,6.75,4.5,6.75C3.255,6.75,2.25,7.755,2.25,9
	s1.005,2.25,2.25,2.25c0.592,0,1.125-0.232,1.53-0.607l5.34,3.12c-0.038,0.157-0.06,0.322-0.06,0.487
	c0,1.207,0.982,2.189,2.189,2.189s2.189-0.982,2.189-2.189S14.707,12.061,13.5,12.061z"/>
</svg>
